<svg width="414" height="33" viewBox="0 0 414 33" fill="none" xmlns="http://www.w3.org/2000/svg">
<g clip-path="url(#clip0_1_1450)">
<path d="M277.172 8.77749H279.665V4.96569C279.235 4.91375 277.756 4.79688 276.034 4.79688C272.441 4.79688 269.979 6.7817 269.979 10.4297V13.787H266.014V18.0483H269.979V28.7705H274.841V18.0493H278.645L279.249 13.788H274.84V10.8522C274.841 9.62056 275.218 8.77749 277.172 8.77749Z" fill="#198C36"/>
</g>
<g clip-path="url(#clip1_1_1450)">
<path d="M325.865 6.0508C324.694 6.50202 323.446 6.80111 322.144 6.94633C323.483 6.24442 324.505 5.14144 324.985 3.81197C323.737 4.46547 322.359 4.92706 320.89 5.18466C319.705 4.07648 318.016 3.39014 316.173 3.39014C312.598 3.39014 309.719 5.93842 309.719 9.0624C309.719 9.5119 309.763 9.9441 309.869 10.3556C304.5 10.1256 299.749 7.86606 296.558 4.42398C296.001 5.27283 295.674 6.24442 295.674 7.29036C295.674 9.2543 296.826 10.9952 298.543 12.0031C297.505 11.9859 296.487 11.7213 295.625 11.3047C295.625 11.322 295.625 11.3445 295.625 11.3669C295.625 14.1227 297.863 16.4116 300.799 16.9389C300.273 17.0651 299.7 17.1256 299.106 17.1256C298.692 17.1256 298.275 17.1049 297.883 17.0288C298.72 19.2746 301.094 20.9256 303.917 20.9792C301.72 22.4884 298.93 23.3978 295.91 23.3978C295.381 23.3978 294.873 23.3771 294.365 23.32C297.226 24.9399 300.616 25.8648 304.272 25.8648C316.155 25.8648 322.652 17.2207 322.652 9.728C322.652 9.47732 322.642 9.23529 322.629 8.99498C323.91 8.19626 324.987 7.19873 325.865 6.0508Z" fill="#198C36"/>
</g>
<g clip-path="url(#clip2_1_1450)">
<path d="M367.452 0.796875H345.18C342.636 0.796875 340.565 2.61475 340.565 4.84879V24.4061C340.565 26.6402 342.636 28.458 345.18 28.458H367.452C369.996 28.458 372.066 26.6402 372.066 24.4061V4.84879C372.066 2.61475 369.996 0.796875 367.452 0.796875ZM351.701 22.7313H348.01V11.3859H351.701V22.7313ZM351.701 9.76513H348.01V6.52359H351.701V9.76513ZM364.621 22.7313H360.93V16.2482C360.93 15.3547 360.102 14.6275 359.084 14.6275C358.067 14.6275 357.238 15.3547 357.238 16.2482V22.7313H353.547V11.3859H357.238V11.9969C358.206 11.7329 358.834 11.3859 360.007 11.3859C362.511 11.3882 364.621 13.3604 364.621 15.6911V22.7313Z" fill="#198C36"/>
</g>
<g clip-path="url(#clip3_1_1450)">
<path d="M409.171 3.79688H390.611C388.491 3.79688 386.766 5.43987 386.766 7.45899V25.1348C386.766 27.1539 388.491 28.7969 390.611 28.7969H409.171C411.291 28.7969 413.016 27.1539 413.016 25.1348V7.45899C413.016 5.43987 411.291 3.79688 409.171 3.79688ZM399.943 22.8399C396.126 22.8399 393.021 19.8829 393.021 16.2481C393.021 12.6132 396.126 9.65625 399.943 9.65625C403.759 9.65625 406.864 12.6132 406.864 16.2481C406.864 19.8829 403.759 22.8399 399.943 22.8399ZM407.633 11.1211C406.361 11.1211 405.326 10.1354 405.326 8.92382C405.326 7.71228 406.361 6.72656 407.633 6.72656C408.905 6.72656 409.94 7.71228 409.94 8.92382C409.94 10.1354 408.905 11.1211 407.633 11.1211Z" fill="#198C36"/>
<path d="M407.633 8.19141C407.209 8.19141 406.864 8.51967 406.864 8.92383C406.864 9.328 407.209 9.65626 407.633 9.65626C408.057 9.65626 408.402 9.328 408.402 8.92383C408.402 8.51967 408.057 8.19141 407.633 8.19141Z" fill="#198C36"/>
<path d="M399.943 11.1211C396.975 11.1211 394.559 13.4214 394.559 16.2481C394.559 19.0748 396.975 21.375 399.943 21.375C402.911 21.375 405.326 19.0748 405.326 16.2481C405.326 13.4214 402.911 11.1211 399.943 11.1211Z" fill="#198C36"/>
</g>
<defs>
<clipPath id="clip0_1_1450">
<rect width="13.6502" height="24" fill="white" transform="translate(266.014 4.79688)"/>
</clipPath>
<clipPath id="clip1_1_1450">
<rect width="31.5004" height="28" fill="white" transform="translate(294.365 0.796875)"/>
</clipPath>
<clipPath id="clip2_1_1450">
<rect width="31.5004" height="28" fill="white" transform="translate(340.565 0.796875)"/>
</clipPath>
<clipPath id="clip3_1_1450">
<rect width="26.2503" height="25" fill="white" transform="translate(386.766 3.79688)"/>
</clipPath>
</defs>
</svg>
