<svg width="1310" height="71" viewBox="0 0 1310 71" fill="none" xmlns="http://www.w3.org/2000/svg">
<path d="M720.5 27C720.5 12.3645 732.364 0.5 747 0.5H1246C1260.64 0.5 1272.5 12.3645 1272.5 27C1272.5 41.6355 1260.64 53.5 1246 53.5H747C732.364 53.5 720.5 41.6355 720.5 27Z" fill="white" stroke="#F2EFE6"/>
<path d="M1199 26C1199 11.6406 1210.64 0 1225 0H1284C1298.36 0 1310 11.6406 1310 26C1310 40.3594 1298.36 52 1284 52H1225C1210.64 52 1199 40.3594 1199 26Z" fill="#15762E"/>
<path d="M1233.36 28.944C1233.36 29.9573 1232.99 30.7467 1232.26 31.312C1231.52 31.8773 1230.53 32.16 1229.28 32.16C1228.64 32.16 1228.05 32.112 1227.5 32.016C1226.96 31.92 1226.51 31.7867 1226.14 31.616V30.24C1226.53 30.4107 1227 30.5653 1227.57 30.704C1228.14 30.8427 1228.74 30.912 1229.34 30.912C1230.2 30.912 1230.84 30.7467 1231.26 30.416C1231.7 30.0853 1231.92 29.6373 1231.92 29.072C1231.92 28.6987 1231.84 28.384 1231.68 28.128C1231.52 27.872 1231.24 27.6373 1230.85 27.424C1230.46 27.2 1229.93 26.9653 1229.23 26.72C1228.26 26.368 1227.53 25.936 1227.02 25.424C1226.53 24.912 1226.29 24.2133 1226.29 23.328C1226.29 22.72 1226.44 22.2027 1226.75 21.776C1227.06 21.3387 1227.49 21.0027 1228.03 20.768C1228.59 20.5333 1229.22 20.416 1229.94 20.416C1230.57 20.416 1231.14 20.4747 1231.66 20.592C1232.19 20.7093 1232.66 20.864 1233.09 21.056L1232.64 22.288C1232.25 22.1173 1231.81 21.9733 1231.34 21.856C1230.89 21.7387 1230.41 21.68 1229.9 21.68C1229.19 21.68 1228.65 21.8347 1228.29 22.144C1227.93 22.4427 1227.74 22.8427 1227.74 23.344C1227.74 23.728 1227.82 24.048 1227.98 24.304C1228.14 24.56 1228.41 24.7893 1228.77 24.992C1229.13 25.1947 1229.62 25.4133 1230.24 25.648C1230.91 25.8933 1231.48 26.16 1231.94 26.448C1232.41 26.7253 1232.76 27.0613 1232.99 27.456C1233.24 27.8507 1233.36 28.3467 1233.36 28.944ZM1236.19 20.208C1236.4 20.208 1236.59 20.2827 1236.75 20.432C1236.92 20.5707 1237.01 20.7947 1237.01 21.104C1237.01 21.4027 1236.92 21.6267 1236.75 21.776C1236.59 21.9253 1236.4 22 1236.19 22C1235.95 22 1235.76 21.9253 1235.6 21.776C1235.44 21.6267 1235.36 21.4027 1235.36 21.104C1235.36 20.7947 1235.44 20.5707 1235.6 20.432C1235.76 20.2827 1235.95 20.208 1236.19 20.208ZM1236.88 23.424V32H1235.47V23.424H1236.88ZM1242.63 23.264C1243.2 23.264 1243.71 23.3707 1244.15 23.584C1244.61 23.7973 1245 24.1227 1245.32 24.56H1245.4L1245.59 23.424H1246.71V32.144C1246.71 33.3707 1246.4 34.2933 1245.77 34.912C1245.15 35.5307 1244.19 35.84 1242.87 35.84C1241.62 35.84 1240.59 35.6587 1239.79 35.296V34C1240.63 34.448 1241.69 34.672 1242.95 34.672C1243.69 34.672 1244.27 34.4533 1244.68 34.016C1245.11 33.5893 1245.32 33.0027 1245.32 32.256V31.92C1245.32 31.792 1245.33 31.6107 1245.34 31.376C1245.35 31.1307 1245.36 30.96 1245.37 30.864H1245.31C1244.73 31.728 1243.85 32.16 1242.65 32.16C1241.54 32.16 1240.67 31.7707 1240.04 30.992C1239.42 30.2133 1239.11 29.1253 1239.11 27.728C1239.11 26.3627 1239.42 25.28 1240.04 24.48C1240.67 23.6693 1241.54 23.264 1242.63 23.264ZM1242.83 24.448C1242.11 24.448 1241.56 24.736 1241.16 25.312C1240.77 25.8773 1240.57 26.688 1240.57 27.744C1240.57 28.8 1240.76 29.6107 1241.15 30.176C1241.54 30.7307 1242.11 31.008 1242.86 31.008C1243.72 31.008 1244.35 30.7787 1244.75 30.32C1245.14 29.8507 1245.34 29.0987 1245.34 28.064V27.728C1245.34 26.5547 1245.14 25.7173 1244.73 25.216C1244.33 24.704 1243.69 24.448 1242.83 24.448ZM1253.57 23.264C1254.59 23.264 1255.36 23.5147 1255.89 24.016C1256.41 24.5067 1256.67 25.3067 1256.67 26.416V32H1255.28V26.512C1255.28 25.136 1254.64 24.448 1253.36 24.448C1252.41 24.448 1251.75 24.7147 1251.39 25.248C1251.03 25.7813 1250.85 26.5493 1250.85 27.552V32H1249.44V23.424H1250.57L1250.78 24.592H1250.86C1251.14 24.144 1251.52 23.8133 1252.01 23.6C1252.5 23.376 1253.02 23.264 1253.57 23.264ZM1272.37 27.968C1272.37 28.7573 1272.21 29.472 1271.89 30.112C1271.57 30.7413 1271.07 31.2427 1270.41 31.616C1269.76 31.9787 1268.93 32.16 1267.92 32.16C1266.5 32.16 1265.42 31.776 1264.67 31.008C1263.93 30.2293 1263.57 29.2053 1263.57 27.936V20.576H1265.01V27.984C1265.01 28.912 1265.25 29.632 1265.74 30.144C1266.24 30.656 1266.99 30.912 1268 30.912C1269.03 30.912 1269.78 30.64 1270.24 30.096C1270.71 29.5413 1270.94 28.832 1270.94 27.968V20.576H1272.37V27.968ZM1279.27 23.264C1280.32 23.264 1281.17 23.632 1281.81 24.368C1282.46 25.104 1282.79 26.2133 1282.79 27.696C1282.79 29.1573 1282.46 30.2667 1281.81 31.024C1281.17 31.7813 1280.32 32.16 1279.25 32.16C1278.59 32.16 1278.04 32.0373 1277.6 31.792C1277.18 31.536 1276.84 31.2427 1276.6 30.912H1276.5C1276.52 31.0933 1276.54 31.3227 1276.56 31.6C1276.59 31.8773 1276.6 32.1173 1276.6 32.32V35.84H1275.19V23.424H1276.34L1276.53 24.592H1276.6C1276.85 24.2187 1277.19 23.904 1277.6 23.648C1278.02 23.392 1278.57 23.264 1279.27 23.264ZM1279.01 24.448C1278.14 24.448 1277.52 24.6933 1277.16 25.184C1276.8 25.6747 1276.62 26.4213 1276.6 27.424V27.696C1276.6 28.752 1276.77 29.568 1277.11 30.144C1277.46 30.7093 1278.11 30.992 1279.04 30.992C1279.57 30.992 1279.99 30.848 1280.32 30.56C1280.67 30.272 1280.92 29.8827 1281.08 29.392C1281.25 28.8907 1281.33 28.32 1281.33 27.68C1281.33 26.6987 1281.14 25.9147 1280.76 25.328C1280.38 24.7413 1279.8 24.448 1279.01 24.448Z" fill="#FBFAF7"/>
</svg>
